<?xml version="1.0" encoding="UTF-8"?>
<svg version="1.1" xmlns="http://www.w3.org/2000/svg" width="48" height="48">
<path d="M0 0 C4.68796317 2.8950501 8.77605467 6.42344712 10.234375 11.89453125 C11.16656452 18.74158704 11.3930195 24.99387098 7.671875 31.01953125 C3.66347868 35.99068326 0.31000422 38.47580101 -6.0078125 39.3359375 C-13.1275177 39.69575056 -18.34453314 39.19135672 -23.98828125 34.640625 C-29.08369757 29.63479842 -30.03494232 26.05750776 -30.390625 19.01953125 C-30.17838344 12.13997715 -28.58962241 7.80486419 -23.765625 2.89453125 C-17.29271618 -2.6344117 -7.84970384 -3.13766411 0 0 Z " fill="#25A599" transform="translate(33.765625,5.10546875)"/>
<path d="M0 0 C5.94 0 11.88 0 18 0 C18 1.65 18 3.3 18 5 C16.02 5 14.04 5 12 5 C12 5.99 12 6.98 12 8 C13.11375 8.144375 14.2275 8.28875 15.375 8.4375 C19 9 19 9 21 10 C21 10.99 21 11.98 21 13 C17.86501708 14.85776765 15.62528568 15.20140476 12 15 C12 17.64 12 20.28 12 23 C10.02 23 8.04 23 6 23 C6 20.36 6 17.72 6 15 C4.88625 14.855625 3.7725 14.71125 2.625 14.5625 C-1 14 -1 14 -3 13 C-3 12.01 -3 11.02 -3 10 C0.13498292 8.14223235 2.37471432 7.79859524 6 8 C6 7.01 6 6.02 6 5 C4.02 5 2.04 5 0 5 C0 3.35 0 1.7 0 0 Z " fill="#FDFEFE" transform="translate(15,13)"/>
<path d="M0 0 C3.3 0 6.6 0 10 0 C8.02 0.99 8.02 0.99 6 2 C6 4.64 6 7.28 6 10 C4.02 10 2.04 10 0 10 C0 6.7 0 3.4 0 0 Z " fill="#FDFEFE" transform="translate(21,26)"/>
<path d="M0 0 C0 0.66 0 1.32 0 2 C1.98 2 3.96 2 6 2 C6 1.34 6 0.68 6 0 C8.97 0.495 8.97 0.495 12 1 C12 1.66 12 2.32 12 3 C8.93466836 4.53266582 5.73245728 4.10276471 2.375 4.0625 C1.66859375 4.05798828 0.9621875 4.05347656 0.234375 4.04882812 C-1.51045275 4.03703875 -3.255237 4.01910324 -5 4 C-5.33 3.01 -5.66 2.02 -6 1 C-3.92446352 0.4465236 -2.15634036 0 0 0 Z " fill="#36ACA1" transform="translate(21,22)"/>
<path d="M0 0 C-1.65 0.33 -3.3 0.66 -5 1 C-4.67 1.66 -4.34 2.32 -4 3 C-1.47266765 3.65555119 -1.47266765 3.65555119 1 4 C1 4.66 1 5.32 1 6 C-5.75 5.125 -5.75 5.125 -8 4 C-8 3.01 -8 2.02 -8 1 C-4.93251126 -0.86240388 -3.40254489 -1.2151946 0 0 Z " fill="#C6E7E4" transform="translate(20,22)"/>
<path d="M0 0 C4.75 0.875 4.75 0.875 7 2 C7 2.99 7 3.98 7 5 C5.1875 6.0625 5.1875 6.0625 3 7 C2.01 6.67 1.02 6.34 0 6 C0.66 6 1.32 6 2 6 C2 5.34 2 4.68 2 4 C2.66 4 3.32 4 4 4 C4 3.34 4 2.68 4 2 C2.68 2 1.36 2 0 2 C0 1.34 0 0.68 0 0 Z " fill="#BCE3E0" transform="translate(29,21)"/>
<path d="M0 0 C0 0.66 0 1.32 0 2 C0.66 2 1.32 2 2 2 C2 2.66 2 3.32 2 4 C-0.31 4 -2.62 4 -5 4 C-5.33 3.01 -5.66 2.02 -6 1 C-3.92446352 0.4465236 -2.15634036 0 0 0 Z " fill="#3FB0A5" transform="translate(21,22)"/>
</svg>
